<svg width="40" height="40" viewBox="0 0 40 40" fill="none" xmlns="http://www.w3.org/2000/svg">
<circle cx="20" cy="20" r="20" fill="#6C63FF" fill-opacity="0.05"/>
<path d="M20 16.207C17.75 16.207 15.957 18.0352 15.957 20.25C15.957 22.5 17.75 24.293 20 24.293C22.2148 24.293 24.043 22.5 24.043 20.25C24.043 18.0352 22.2148 16.207 20 16.207ZM20 22.8867C18.5586 22.8867 17.3633 21.7266 17.3633 20.25C17.3633 18.8086 18.5234 17.6484 20 17.6484C21.4414 17.6484 22.6016 18.8086 22.6016 20.25C22.6016 21.7266 21.4414 22.8867 20 22.8867ZM25.1328 16.0664C25.1328 15.5391 24.7109 15.1172 24.1836 15.1172C23.6562 15.1172 23.2344 15.5391 23.2344 16.0664C23.2344 16.5938 23.6562 17.0156 24.1836 17.0156C24.7109 17.0156 25.1328 16.5938 25.1328 16.0664ZM27.8047 17.0156C27.7344 15.75 27.4531 14.625 26.5391 13.7109C25.625 12.7969 24.5 12.5156 23.2344 12.4453C21.9336 12.375 18.0312 12.375 16.7305 12.4453C15.4648 12.5156 14.375 12.7969 13.4258 13.7109C12.5117 14.625 12.2305 15.75 12.1602 17.0156C12.0898 18.3164 12.0898 22.2188 12.1602 23.5195C12.2305 24.7852 12.5117 25.875 13.4258 26.8242C14.375 27.7383 15.4648 28.0195 16.7305 28.0898C18.0312 28.1602 21.9336 28.1602 23.2344 28.0898C24.5 28.0195 25.625 27.7383 26.5391 26.8242C27.4531 25.875 27.7344 24.7852 27.8047 23.5195C27.875 22.2188 27.875 18.3164 27.8047 17.0156ZM26.1172 24.8906C25.8711 25.5938 25.3086 26.1211 24.6406 26.4023C23.5859 26.8242 21.125 26.7188 20 26.7188C18.8398 26.7188 16.3789 26.8242 15.3594 26.4023C14.6562 26.1211 14.1289 25.5938 13.8477 24.8906C13.4258 23.8711 13.5312 21.4102 13.5312 20.25C13.5312 19.125 13.4258 16.6641 13.8477 15.6094C14.1289 14.9414 14.6562 14.4141 15.3594 14.1328C16.3789 13.7109 18.8398 13.8164 20 13.8164C21.125 13.8164 23.5859 13.7109 24.6406 14.1328C25.3086 14.3789 25.8359 14.9414 26.1172 15.6094C26.5391 16.6641 26.4336 19.125 26.4336 20.25C26.4336 21.4102 26.5391 23.8711 26.1172 24.8906Z" fill="#6C63FF"/>
</svg>
